<svg version="1.1" xmlns="http://www.w3.org/2000/svg" xmlns:xlink="http://www.w3.org/1999/xlink" width="512.000000pt" height="512.000000pt" viewBox="0,0,256,256"><g fill="#ffffff" fill-rule="nonzero" stroke="none" stroke-width="1" stroke-linecap="butt" stroke-linejoin="miter" stroke-miterlimit="10" stroke-dasharray="" stroke-dashoffset="0" font-family="none" font-weight="none" font-size="none" text-anchor="none" style="mix-blend-mode: normal"><g transform="translate(0,-0.02913) scale(0.5,0.5)"><g transform="translate(0,512) scale(0.1,-0.1)"><path d="M1603,4786c-149,-36 -281,-156 -329,-299c-9,-26 -19,-69 -22,-95l-7,-47l-250,-5l-250,-5l-69,-33c-39,-18 -89,-48 -112,-67c-57,-47 -120,-143 -144,-222c-20,-64 -20,-91 -20,-1683c0,-1560 1,-1620 19,-1679c48,-155 175,-274 338,-316c50,-13 288,-15 1803,-15c1894,0 1797,-3 1909,53c101,50 197,165 232,278c18,59 19,119 19,1679c0,1592 0,1619 -20,1683c-40,130 -132,231 -265,294c-60,28 -62,28 -310,33l-250,5l-7,47c-28,200 -173,357 -366,397c-258,54 -510,-120 -555,-384l-11,-65h-376h-376l-11,65c-46,269 -308,444 -570,381zM1798,4452c55,-40 62,-71 62,-269c0,-150 -3,-183 -18,-212c-24,-48 -62,-73 -119,-78c-39,-4 -55,0 -82,19c-68,46 -74,63 -79,217c-5,169 2,240 31,283c46,68 139,86 205,40zM3489,4453c55,-41 65,-76 69,-226c6,-198 -1,-240 -48,-291c-37,-39 -41,-41 -99,-41c-69,0 -105,20 -134,76c-15,30 -17,58 -15,224c3,178 4,192 25,221c46,64 142,81 202,37zM2766,3285c592,-104 1025,-644 991,-1239c-50,-872 -966,-1403 -1742,-1009c-379,192 -627,573 -651,999c-35,601 390,1141 982,1248c107,19 311,20 420,1z"></path><path d="M2375,2963c-261,-55 -494,-241 -610,-484c-61,-130 -79,-214 -78,-379c0,-128 3,-155 26,-233c51,-165 125,-285 250,-403c334,-318 860,-318 1194,-1c176,168 268,365 280,602c21,428 -279,813 -699,899c-96,20 -269,19 -363,-1zM2640,2638c69,-48 75,-63 78,-229l3,-149h143c132,0 146,-2 176,-22c76,-52 98,-125 61,-202c-38,-77 -71,-90 -238,-94l-143,-4v-131c0,-112 -3,-137 -21,-173c-55,-115 -214,-118 -277,-6c-20,36 -22,54 -22,175v135l-142,4c-165,4 -196,15 -237,88c-41,74 -18,155 59,208c30,20 44,22 176,22h143l3,149c3,133 5,153 24,178c35,48 82,73 134,73c32,0 57,-7 80,-22z"></path></g></g></g></svg>