<svg version="1.1" xmlns="http://www.w3.org/2000/svg" xmlns:xlink="http://www.w3.org/1999/xlink" width="512.000000pt" height="512.000000pt" viewBox="0,0,256,256"><g fill="#ffffff" fill-rule="nonzero" stroke="none" stroke-width="1" stroke-linecap="butt" stroke-linejoin="miter" stroke-miterlimit="10" stroke-dasharray="" stroke-dashoffset="0" font-family="none" font-weight="none" font-size="none" text-anchor="none" style="mix-blend-mode: normal"><g transform="translate(-0.02187,-0.05434) scale(0.5,0.5)"><g transform="translate(0,512) scale(0.1,-0.1)"><path d="M2380,5101c-172,-37 -315,-111 -442,-230c-137,-128 -226,-280 -269,-457c-28,-111 -30,-292 -5,-403c81,-363 375,-646 740,-710c77,-14 235,-14 312,0c355,62 639,326 731,677c20,78 25,122 26,222c0,150 -23,259 -83,387c-180,384 -604,599 -1010,514zM2728,4720c48,-29 62,-72 62,-190v-100h108c177,0 202,-29 202,-230c0,-131 -9,-162 -56,-199c-24,-19 -40,-21 -140,-21h-114v-102c0,-115 -14,-156 -63,-192c-26,-19 -43,-21 -167,-21c-124,0 -141,2 -167,21c-49,36 -63,77 -63,192v102h-114c-100,0 -116,2 -140,21c-47,37 -56,68 -56,199c0,201 25,230 203,230h107l1,98c0,118 13,159 58,189c31,21 45,23 170,23c119,0 140,-3 169,-20z"></path><path d="M2500,4461c0,-66 -4,-131 -10,-146c-16,-41 -64,-55 -190,-55h-110v-60v-60h124c68,0 132,-3 141,-6c34,-13 45,-59 45,-184v-120h60h60v120c0,125 11,171 45,184c9,3 73,6 141,6h124v60v60h-110c-126,0 -174,14 -190,55c-6,15 -10,80 -10,146v119h-60h-60z"></path><path d="M1099,2722c-178,-47 -311,-194 -341,-378c-29,-173 63,-366 218,-461c174,-105 413,-75 560,71c220,221 159,595 -120,731c-115,57 -202,67 -317,37z"></path><path d="M3821,2729c-72,-14 -168,-65 -226,-120c-236,-224 -175,-606 120,-746c138,-65 309,-55 436,25c111,71 188,189 210,320c51,307 -233,581 -540,521z"></path><path d="M2455,2386c-85,-20 -147,-57 -216,-125c-76,-77 -113,-147 -131,-250c-25,-146 25,-293 136,-399c73,-70 146,-107 244,-124c147,-25 294,25 400,136c105,109 148,245 124,389c-17,97 -54,170 -124,243c-114,119 -277,168 -433,130z"></path><path d="M790,1624c-114,-24 -224,-86 -315,-178c-84,-85 -126,-152 -166,-266c-22,-62 -23,-80 -27,-408c-3,-255 0,-352 9,-373c25,-61 1,-59 610,-59h556l6,218c6,224 14,277 59,392c33,84 95,182 160,254c59,65 189,160 260,189c48,20 44,33 -36,96c-80,64 -166,107 -262,131c-70,18 -109,20 -433,19c-264,0 -373,-4 -421,-15z"></path><path d="M3473,1620c-39,-10 -97,-31 -127,-45c-60,-29 -190,-125 -199,-149c-4,-10 13,-23 56,-45c156,-77 288,-213 367,-376c68,-141 81,-210 88,-457l5,-208h554c361,0 561,4 574,10c46,25 49,50 49,380c0,358 -7,415 -72,549c-57,119 -168,230 -288,290c-135,66 -174,71 -580,70c-315,0 -363,-2 -427,-19z"></path><path d="M2128,1285c-235,-58 -417,-241 -478,-481c-18,-69 -20,-111 -20,-400c0,-348 2,-364 51,-390c42,-21 1716,-21 1758,1c50,26 52,43 49,416l-3,344l-31,85c-70,196 -209,336 -406,408l-73,27l-395,2c-311,1 -407,-1 -452,-12z"></path></g></g></g></svg>