<svg version="1.1" xmlns="http://www.w3.org/2000/svg" xmlns:xlink="http://www.w3.org/1999/xlink" width="512.000000pt" height="512.000000pt" viewBox="0,0,256,256"><g fill="#ffffff" fill-rule="nonzero" stroke="none" stroke-width="1" stroke-linecap="butt" stroke-linejoin="miter" stroke-miterlimit="10" stroke-dasharray="" stroke-dashoffset="0" font-family="none" font-weight="none" font-size="none" text-anchor="none" style="mix-blend-mode: normal"><g transform="translate(1.49576,-1.7625) scale(0.5,0.5)"><g transform="translate(0,512) scale(0.1,-0.1)"><path d="M3653,4722c-7,-4 -79,-144 -162,-311c-82,-167 -154,-308 -159,-313c-5,-5 -161,-31 -346,-58c-185,-27 -344,-54 -352,-60c-36,-31 -18,-54 229,-296c134,-132 246,-244 249,-249c4,-6 -20,-164 -52,-350c-53,-306 -57,-342 -44,-362c8,-13 21,-23 30,-23c9,0 152,72 320,160c167,88 309,160 315,160c6,0 147,-72 314,-160c167,-88 311,-160 319,-160c9,0 22,10 30,23c13,20 8,57 -44,361c-33,187 -56,344 -52,350c3,6 115,118 249,250c247,242 265,265 229,295c-8,7 -166,35 -351,62c-186,27 -341,52 -346,54c-4,3 -76,144 -159,312c-83,169 -156,311 -163,315c-15,10 -39,10 -54,0z"></path><path d="M1305,3669c-349,-69 -597,-323 -656,-673c-40,-234 51,-505 226,-681c154,-154 340,-230 565,-230c225,0 411,76 565,230c154,154 230,340 230,565c0,174 -36,297 -125,433c-112,173 -271,287 -480,344c-68,18 -258,25 -325,12z"></path><path d="M1260,1905c-293,-47 -576,-227 -747,-476c-46,-67 -110,-200 -138,-286c-44,-135 -55,-235 -55,-516v-258l25,-24l24,-25h1071h1071l24,25l25,24v253c0,170 -5,284 -15,348c-43,285 -199,549 -427,721c-246,185 -554,262 -858,214z"></path></g></g></g></svg>